<svg xmlns="http://www.w3.org/2000/svg" xmlns:xlink="http://www.w3.org/1999/xlink" preserveAspectRatio="xMidYMid" width="169" height="169" viewBox="0 0 169 169">
  <defs>
    <style>
      .cls-1 {
        fill: #000;
        fill-rule: evenodd;
      }
    </style>
  </defs>
  <path d="M122.361,169.000 L46.636,169.000 C20.921,169.000 -0.000,148.079 -0.000,122.362 L-0.000,46.638 C-0.000,20.922 20.921,-0.000 46.636,-0.000 L122.361,-0.000 C148.078,-0.000 169.000,20.922 168.999,46.638 L168.999,122.362 C168.999,148.078 148.078,169.000 122.361,169.000 ZM154.005,122.362 L154.005,46.638 C154.005,29.190 139.809,14.994 122.361,14.994 L46.636,14.994 C29.189,14.994 14.994,29.190 14.994,46.638 L14.994,122.362 C14.994,139.811 29.189,154.007 46.636,154.006 L122.362,154.006 C139.810,154.006 154.006,139.811 154.006,122.362 L154.005,122.362 ZM129.873,50.232 C126.984,50.232 124.145,49.053 122.106,47.014 C120.056,44.964 118.877,42.126 118.877,39.236 C118.877,36.337 120.055,33.498 122.106,31.459 C124.146,29.410 126.984,28.240 129.873,28.240 C132.772,28.240 135.611,29.410 137.650,31.459 C139.699,33.498 140.869,36.337 140.869,39.236 C140.869,42.125 139.699,44.964 137.650,47.014 C135.601,49.053 132.772,50.232 129.873,50.232 ZM84.499,128.047 C60.487,128.047 40.953,108.513 40.953,84.502 C40.953,60.490 60.487,40.955 84.499,40.955 C108.512,40.955 128.046,60.490 128.046,84.502 C128.046,108.513 108.512,128.047 84.499,128.047 ZM84.499,55.948 C68.755,55.948 55.947,68.757 55.947,84.501 C55.947,100.244 68.756,113.052 84.499,113.052 C100.243,113.052 113.052,100.244 113.052,84.501 C113.052,68.757 100.244,55.948 84.499,55.948 Z" class="cls-1"/>
</svg>
