<svg xmlns="http://www.w3.org/2000/svg" xmlns:xlink="http://www.w3.org/1999/xlink" preserveAspectRatio="xMidYMid" width="511.5" height="415.531" viewBox="0 0 511.5 415.531">
  <defs>
    <style>
      .cls-1 {
        fill: #000;
        fill-rule: evenodd;
      }
    </style>
  </defs>
  <path d="M512.001,49.241 C493.163,57.595 472.919,63.242 451.670,65.781 C473.358,52.781 490.013,32.196 497.858,7.666 C477.558,19.705 455.080,28.446 431.153,33.156 C411.993,12.741 384.692,-0.014 354.478,-0.014 C296.467,-0.014 249.436,47.015 249.436,105.025 C249.436,113.258 250.364,121.275 252.155,128.964 C164.855,124.582 87.455,82.764 35.647,19.211 C26.605,34.725 21.423,52.769 21.423,72.020 C21.423,108.464 39.967,140.616 68.153,159.453 C50.935,158.907 34.737,154.182 20.577,146.314 C20.566,146.752 20.566,147.192 20.566,147.635 C20.566,198.529 56.775,240.983 104.828,250.636 C96.015,253.034 86.733,254.321 77.153,254.321 C70.384,254.321 63.805,253.661 57.390,252.435 C70.757,294.164 109.549,324.538 155.516,325.384 C119.565,353.558 74.273,370.351 25.058,370.351 C16.579,370.351 8.217,369.854 -0.000,368.880 C46.485,398.686 101.701,416.076 161.021,416.076 C354.231,416.076 459.888,256.015 459.888,117.204 C459.888,112.650 459.786,108.120 459.583,103.614 C480.111,88.805 497.919,70.305 512.001,49.241 Z" class="cls-1"/>
</svg>
