<svg xmlns="http://www.w3.org/2000/svg" xmlns:xlink="http://www.w3.org/1999/xlink" preserveAspectRatio="xMidYMid" width="23" height="13.531" viewBox="0 0 23 13.531">
  <defs>
    <style>
      .cls-1 {
        fill: #0e8845;
        fill-rule: evenodd;
      }
    </style>
  </defs>
  <path d="M11.444,13.348 L12.843,13.348 C12.843,13.348 13.265,13.302 13.481,13.068 C13.680,12.854 13.674,12.451 13.674,12.451 C13.674,12.451 13.646,10.565 14.517,10.288 C15.376,10.014 16.479,12.110 17.648,12.916 C18.532,13.525 19.204,13.392 19.204,13.392 L22.330,13.348 C22.330,13.348 23.965,13.247 23.190,11.956 C23.127,11.850 22.738,11.001 20.866,9.255 C18.905,7.428 19.168,7.724 21.529,4.563 C22.967,2.638 23.542,1.463 23.362,0.960 C23.191,0.481 22.134,0.607 22.134,0.607 L18.614,0.629 C18.614,0.629 18.353,0.593 18.159,0.710 C17.970,0.823 17.849,1.089 17.849,1.089 C17.849,1.089 17.292,2.579 16.549,3.845 C14.982,6.518 14.355,6.659 14.099,6.493 C13.503,6.106 13.652,4.939 13.652,4.110 C13.652,1.520 14.043,0.440 12.890,0.161 C12.507,0.068 12.226,0.006 11.247,-0.004 C9.991,-0.016 8.928,-0.000 8.327,0.297 C7.926,0.494 7.617,0.932 7.805,0.957 C8.038,0.988 8.565,1.100 8.844,1.482 C9.205,1.974 9.192,3.081 9.192,3.081 C9.192,3.081 9.400,6.130 8.708,6.509 C8.234,6.768 7.583,6.238 6.186,3.813 C5.470,2.571 4.929,1.199 4.929,1.199 C4.929,1.199 4.825,0.942 4.639,0.805 C4.414,0.638 4.099,0.586 4.099,0.586 L0.754,0.607 C0.754,0.607 0.252,0.621 0.068,0.840 C-0.097,1.036 0.054,1.440 0.054,1.440 C0.054,1.440 2.673,7.592 5.638,10.692 C8.357,13.535 11.444,13.348 11.444,13.348 Z" class="cls-1"/>
</svg>
